<mxfile host="Electron" modified="2024-09-27T20:39:51.489Z" agent="Mozilla/5.0 (Windows NT 10.0; Win64; x64) AppleWebKit/537.36 (KHTML, like Gecko) draw.io/22.1.16 Chrome/120.0.6099.109 Electron/28.1.0 Safari/537.36" etag="huELvGSDnYDm3Ml-ZBn8" version="22.1.16" type="device">
  <diagram name="Page-1" id="AzJHo57NSov567J8vjZq">
    <mxGraphModel dx="439" dy="116" grid="1" gridSize="10" guides="1" tooltips="1" connect="1" arrows="1" fold="1" page="1" pageScale="1" pageWidth="500" pageHeight="130" math="0" shadow="0">
      <root>
        <mxCell id="0" />
        <mxCell id="1" parent="0" />
        <mxCell id="K0lndk3c3T9sGNKvP9zY-1" value="" style="ellipse;whiteSpace=wrap;html=1;aspect=fixed;fillColor=#FFB570;fillOpacity=50;" vertex="1" parent="1">
          <mxGeometry x="260" y="268" width="20" height="20" as="geometry" />
        </mxCell>
        <mxCell id="K0lndk3c3T9sGNKvP9zY-2" value="" style="ellipse;whiteSpace=wrap;html=1;aspect=fixed;fillColor=#FFB570;fillOpacity=50;" vertex="1" parent="1">
          <mxGeometry x="220" y="268" width="20" height="20" as="geometry" />
        </mxCell>
        <mxCell id="K0lndk3c3T9sGNKvP9zY-3" value="" style="ellipse;whiteSpace=wrap;html=1;aspect=fixed;fillOpacity=50;" vertex="1" parent="1">
          <mxGeometry x="250" y="353" width="20" height="20" as="geometry" />
        </mxCell>
        <mxCell id="K0lndk3c3T9sGNKvP9zY-4" value="" style="ellipse;whiteSpace=wrap;html=1;aspect=fixed;fillColor=#FFB570;fillOpacity=50;" vertex="1" parent="1">
          <mxGeometry x="340" y="268" width="20" height="20" as="geometry" />
        </mxCell>
        <mxCell id="K0lndk3c3T9sGNKvP9zY-5" value="" style="ellipse;whiteSpace=wrap;html=1;aspect=fixed;fillOpacity=50;" vertex="1" parent="1">
          <mxGeometry x="340" y="353" width="20" height="20" as="geometry" />
        </mxCell>
        <mxCell id="K0lndk3c3T9sGNKvP9zY-6" value="" style="ellipse;whiteSpace=wrap;html=1;aspect=fixed;fillColor=#FFB570;fillOpacity=50;" vertex="1" parent="1">
          <mxGeometry x="300" y="268" width="20" height="20" as="geometry" />
        </mxCell>
        <mxCell id="K0lndk3c3T9sGNKvP9zY-7" value="" style="ellipse;whiteSpace=wrap;html=1;aspect=fixed;fillOpacity=50;" vertex="1" parent="1">
          <mxGeometry x="150" y="353" width="20" height="20" as="geometry" />
        </mxCell>
        <mxCell id="K0lndk3c3T9sGNKvP9zY-8" value="" style="ellipse;whiteSpace=wrap;html=1;aspect=fixed;fillColor=#FFB570;fillOpacity=50;" vertex="1" parent="1">
          <mxGeometry x="140" y="268" width="20" height="20" as="geometry" />
        </mxCell>
        <mxCell id="K0lndk3c3T9sGNKvP9zY-9" value="" style="ellipse;whiteSpace=wrap;html=1;aspect=fixed;fillColor=#FFB570;fillOpacity=50;" vertex="1" parent="1">
          <mxGeometry x="180" y="268" width="20" height="20" as="geometry" />
        </mxCell>
        <mxCell id="K0lndk3c3T9sGNKvP9zY-10" value="" style="endArrow=none;html=1;rounded=0;endFill=0;startArrow=none;startFill=0;" edge="1" parent="1" source="K0lndk3c3T9sGNKvP9zY-7" target="K0lndk3c3T9sGNKvP9zY-2">
          <mxGeometry width="50" height="50" relative="1" as="geometry">
            <mxPoint x="230" y="398" as="sourcePoint" />
            <mxPoint x="280" y="348" as="targetPoint" />
          </mxGeometry>
        </mxCell>
        <mxCell id="K0lndk3c3T9sGNKvP9zY-11" value="" style="endArrow=none;html=1;rounded=0;endFill=0;startArrow=none;startFill=0;" edge="1" parent="1" source="K0lndk3c3T9sGNKvP9zY-7" target="K0lndk3c3T9sGNKvP9zY-8">
          <mxGeometry width="50" height="50" relative="1" as="geometry">
            <mxPoint x="230" y="398" as="sourcePoint" />
            <mxPoint x="280" y="348" as="targetPoint" />
          </mxGeometry>
        </mxCell>
        <mxCell id="K0lndk3c3T9sGNKvP9zY-13" value="" style="endArrow=none;html=1;rounded=0;endFill=0;startArrow=none;startFill=0;" edge="1" parent="1" source="K0lndk3c3T9sGNKvP9zY-9" target="K0lndk3c3T9sGNKvP9zY-7">
          <mxGeometry width="50" height="50" relative="1" as="geometry">
            <mxPoint x="230" y="398" as="sourcePoint" />
            <mxPoint x="280" y="348" as="targetPoint" />
          </mxGeometry>
        </mxCell>
        <mxCell id="K0lndk3c3T9sGNKvP9zY-14" value="" style="endArrow=none;html=1;rounded=0;endFill=0;startArrow=none;startFill=0;" edge="1" parent="1" source="K0lndk3c3T9sGNKvP9zY-1" target="K0lndk3c3T9sGNKvP9zY-7">
          <mxGeometry width="50" height="50" relative="1" as="geometry">
            <mxPoint x="230" y="398" as="sourcePoint" />
            <mxPoint x="280" y="348" as="targetPoint" />
          </mxGeometry>
        </mxCell>
        <mxCell id="K0lndk3c3T9sGNKvP9zY-15" value="" style="endArrow=none;html=1;rounded=0;endFill=0;startArrow=none;startFill=0;" edge="1" parent="1" source="K0lndk3c3T9sGNKvP9zY-3" target="K0lndk3c3T9sGNKvP9zY-1">
          <mxGeometry width="50" height="50" relative="1" as="geometry">
            <mxPoint x="230" y="398" as="sourcePoint" />
            <mxPoint x="280" y="348" as="targetPoint" />
          </mxGeometry>
        </mxCell>
        <mxCell id="K0lndk3c3T9sGNKvP9zY-16" value="" style="endArrow=none;html=1;rounded=0;endFill=0;startArrow=none;startFill=0;" edge="1" parent="1" source="K0lndk3c3T9sGNKvP9zY-3" target="K0lndk3c3T9sGNKvP9zY-4">
          <mxGeometry width="50" height="50" relative="1" as="geometry">
            <mxPoint x="230" y="398" as="sourcePoint" />
            <mxPoint x="280" y="348" as="targetPoint" />
          </mxGeometry>
        </mxCell>
        <mxCell id="K0lndk3c3T9sGNKvP9zY-17" value="" style="endArrow=none;html=1;rounded=0;endFill=0;startArrow=none;startFill=0;" edge="1" parent="1" source="K0lndk3c3T9sGNKvP9zY-6" target="K0lndk3c3T9sGNKvP9zY-3">
          <mxGeometry width="50" height="50" relative="1" as="geometry">
            <mxPoint x="230" y="398" as="sourcePoint" />
            <mxPoint x="280" y="348" as="targetPoint" />
          </mxGeometry>
        </mxCell>
        <mxCell id="K0lndk3c3T9sGNKvP9zY-18" value="" style="endArrow=none;html=1;rounded=0;endFill=0;startArrow=none;startFill=0;" edge="1" parent="1" source="K0lndk3c3T9sGNKvP9zY-4" target="K0lndk3c3T9sGNKvP9zY-5">
          <mxGeometry width="50" height="50" relative="1" as="geometry">
            <mxPoint x="290" y="293" as="sourcePoint" />
            <mxPoint x="280" y="348" as="targetPoint" />
          </mxGeometry>
        </mxCell>
        <mxCell id="K0lndk3c3T9sGNKvP9zY-46" value="" style="ellipse;whiteSpace=wrap;html=1;aspect=fixed;fillOpacity=50;" vertex="1" parent="1">
          <mxGeometry x="300" y="353" width="20" height="20" as="geometry" />
        </mxCell>
        <mxCell id="K0lndk3c3T9sGNKvP9zY-47" value="" style="endArrow=none;html=1;rounded=0;endFill=0;startArrow=none;startFill=0;" edge="1" parent="1" source="K0lndk3c3T9sGNKvP9zY-6" target="K0lndk3c3T9sGNKvP9zY-46">
          <mxGeometry width="50" height="50" relative="1" as="geometry">
            <mxPoint x="360" y="298" as="sourcePoint" />
            <mxPoint x="360" y="363" as="targetPoint" />
          </mxGeometry>
        </mxCell>
        <mxCell id="K0lndk3c3T9sGNKvP9zY-48" value="" style="ellipse;whiteSpace=wrap;html=1;aspect=fixed;fillOpacity=50;" vertex="1" parent="1">
          <mxGeometry x="200" y="353" width="20" height="20" as="geometry" />
        </mxCell>
        <mxCell id="K0lndk3c3T9sGNKvP9zY-50" value="" style="endArrow=none;html=1;rounded=0;endFill=0;startArrow=none;startFill=0;" edge="1" parent="1" source="K0lndk3c3T9sGNKvP9zY-48" target="K0lndk3c3T9sGNKvP9zY-1">
          <mxGeometry width="50" height="50" relative="1" as="geometry">
            <mxPoint x="271" y="363" as="sourcePoint" />
            <mxPoint x="279" y="298" as="targetPoint" />
          </mxGeometry>
        </mxCell>
        <mxCell id="K0lndk3c3T9sGNKvP9zY-51" value="" style="endArrow=none;html=1;rounded=0;endFill=0;startArrow=none;startFill=0;" edge="1" parent="1" source="K0lndk3c3T9sGNKvP9zY-48" target="K0lndk3c3T9sGNKvP9zY-2">
          <mxGeometry width="50" height="50" relative="1" as="geometry">
            <mxPoint x="281" y="373" as="sourcePoint" />
            <mxPoint x="289" y="308" as="targetPoint" />
          </mxGeometry>
        </mxCell>
      </root>
    </mxGraphModel>
  </diagram>
</mxfile>
